<svg width="18" height="18" viewBox="0 0 18 18" fill="none" xmlns="http://www.w3.org/2000/svg">
<path d="M9 11.1875C9.01306 11.1875 9.02868 11.1927 9.04297 11.207C9.05726 11.2213 9.0625 11.2369 9.0625 11.25V13.5C9.0625 13.5131 9.05726 13.5287 9.04297 13.543C9.02868 13.5573 9.01306 13.5625 9 13.5625C8.98694 13.5625 8.97132 13.5573 8.95703 13.543C8.94274 13.5287 8.9375 13.5131 8.9375 13.5V11.25C8.9375 11.2369 8.94274 11.2213 8.95703 11.207C8.97132 11.1927 8.98694 11.1875 9 11.1875Z" fill="#292D32" stroke="#667085"/>
<path d="M7.51367 2.06201C8.33294 1.40176 9.65481 1.40481 10.4873 2.0708L15.6846 6.2251C15.968 6.45401 16.2176 6.81935 16.3789 7.24365C16.5399 7.66718 16.5964 8.10692 16.5391 8.46729L15.542 14.437C15.3576 15.5238 14.2909 16.4202 13.2002 16.4204H4.7998C3.67773 16.4204 2.64242 15.5451 2.45801 14.4448L1.45996 8.46826V8.4624L1.44141 8.32568C1.41135 7.99686 1.46979 7.61527 1.61133 7.24463C1.77299 6.82139 2.02677 6.45564 2.31445 6.22607V6.2251L7.5127 2.06299L7.51367 2.06201ZM8.99219 1.69775C8.50211 1.69776 7.98941 1.84423 7.59375 2.15869L7.5918 2.15967L2.39453 6.33057H2.39355C2.09361 6.57175 1.8709 6.93672 1.73438 7.29346C1.61487 7.60574 1.53984 7.96763 1.56641 8.30908L1.58398 8.45361L2.58203 14.4224V14.4243C2.75804 15.451 3.75294 16.2954 4.7998 16.2954H13.2002C14.248 16.2952 15.2424 15.4501 15.418 14.4165V14.4146L16.415 8.44482L16.416 8.43994C16.4751 8.06362 16.395 7.64228 16.2598 7.28662C16.1247 6.9317 15.9042 6.56157 15.6045 6.32178L10.4072 2.16748C10.0032 1.84424 9.48181 1.69775 8.99219 1.69775Z" fill="#292D32" stroke="#667085"/>
</svg>
