<svg width="18" height="18" viewBox="0 0 18 18" fill="none" xmlns="http://www.w3.org/2000/svg">
<path d="M3 10.4375H6.50293C6.51591 10.4376 6.53177 10.4429 6.5459 10.457C6.56003 10.4713 6.56543 10.487 6.56543 10.5V16.5C6.56543 16.513 6.56003 16.5287 6.5459 16.543C6.53177 16.5571 6.51591 16.5624 6.50293 16.5625H1.5C1.48694 16.5625 1.47132 16.5573 1.45703 16.543C1.44274 16.5287 1.4375 16.5131 1.4375 16.5V12C1.4375 11.1361 2.13614 10.4375 3 10.4375ZM3 10.5625C2.20636 10.5625 1.5625 11.2064 1.5625 12V16.4375H6.44043V10.5625H3Z" fill="#667085" stroke="#667085"/>
<path d="M7.99512 7.4375H9.99805C10.8617 7.43773 11.5605 8.13629 11.5605 9V16.5C11.5605 16.5356 11.5324 16.5623 11.498 16.5625H6.49512C6.48205 16.5625 6.46644 16.5573 6.45215 16.543C6.43786 16.5287 6.43262 16.5131 6.43262 16.5V9C6.43262 8.13614 7.13126 7.4375 7.99512 7.4375ZM8.00293 7.5625C7.20929 7.5625 6.56543 8.20636 6.56543 9V16.4375H11.4424V9C11.4424 8.20636 10.7985 7.5625 10.0049 7.5625H8.00293Z" fill="#667085" stroke="#667085"/>
<path d="M16.5001 17.0625H11.4976C11.1901 17.0625 10.9351 16.8075 10.9351 16.5V12.75C10.9351 12.4425 11.1901 12.1875 11.4976 12.1875H15.0001C16.1401 12.1875 17.0626 13.11 17.0626 14.25V16.5C17.0626 16.8075 16.8076 17.0625 16.5001 17.0625ZM12.0601 15.9375H15.9376V14.25C15.9376 13.7325 15.5176 13.3125 15.0001 13.3125H12.0601V15.9375Z" fill="#667085"/>
<path d="M10.2749 6.26249C10.0949 6.26249 9.86992 6.20997 9.61492 6.05997L8.99992 5.69248L8.39242 6.05249C7.77742 6.41999 7.37242 6.20249 7.22242 6.09749C7.07242 5.99249 6.74992 5.66249 6.90742 4.97249L7.04992 4.34998L6.53992 3.83998C6.22492 3.52498 6.11242 3.14998 6.22492 2.80498C6.33742 2.45998 6.64492 2.21997 7.07992 2.14497L7.73242 2.03248L8.09992 1.29749C8.50492 0.494993 9.48742 0.494993 9.88492 1.29749L10.2524 2.03248L10.9049 2.14497C11.3399 2.21997 11.6549 2.45998 11.7599 2.80498C11.8724 3.14998 11.7524 3.52498 11.4449 3.83998L10.9349 4.34998L11.0774 4.97249C11.2349 5.66999 10.9124 5.9925 10.7624 6.105C10.6949 6.165 10.5224 6.26249 10.2749 6.26249ZM8.99992 4.55997C9.17992 4.55997 9.35992 4.60499 9.50992 4.69499L9.92992 4.94248L9.83992 4.53748C9.76492 4.22248 9.87742 3.83998 10.1099 3.60748L10.4924 3.22498L10.0199 3.14249C9.71992 3.08999 9.42742 2.87249 9.29242 2.60249L8.99992 2.03999L8.71492 2.60249C8.57992 2.87249 8.28742 3.08999 7.98742 3.14249L7.51492 3.21749L7.89742 3.59998C8.12992 3.83248 8.23492 4.21499 8.16742 4.52999L8.07742 4.93497L8.49742 4.68748C8.63992 4.59748 8.81992 4.55997 8.99992 4.55997Z" fill="#667085"/>
</svg>
