<svg width="18" height="18" viewBox="0 0 18 18" fill="none" xmlns="http://www.w3.org/2000/svg">
<path d="M5.25024 4.44501H12.7502C14.3197 4.44506 15.2623 4.80154 15.7903 5.38837C16.3371 5.99828 16.4102 6.81167 16.3655 7.52997L16.3401 7.83075V7.83563L15.7776 13.8229C15.6991 14.5716 15.5146 15.2248 15.0256 15.7018C14.54 16.1754 13.6627 16.5621 12.0002 16.5622H6.00024C4.33735 16.5622 3.45955 16.1749 2.97388 15.7018C2.48503 15.2256 2.3003 14.5744 2.22192 13.8298L1.6604 7.8288L1.65942 7.82294L1.63403 7.52411C1.58947 6.81175 1.66191 5.99815 2.20825 5.38837L2.20923 5.38934C2.74422 4.79503 3.68643 4.44501 5.25024 4.44501ZM5.25024 4.56219C3.9596 4.56219 2.89219 4.80589 2.29712 5.47137C1.78482 6.03802 1.68081 6.84388 1.78247 7.81415L2.34497 13.8171V13.8239C2.40978 14.4261 2.53409 15.1397 3.11841 15.6686C3.69372 16.1894 4.60862 16.4372 6.00024 16.4372H12.0002C13.3884 16.4372 14.3031 16.1892 14.8792 15.6677C15.4639 15.1381 15.5896 14.4231 15.6545 13.8161L15.6555 13.8093L16.217 7.8161C16.3115 6.90125 16.2265 6.13625 15.7922 5.57782L15.7004 5.46942C15.105 4.80568 14.0393 4.56223 12.7502 4.56219H5.25024Z" fill="#292D32" stroke="#667085"/>
<path d="M8.40039 1.4375H9.59961C10.9959 1.4375 11.5313 1.82106 11.7715 2.19434C12.048 2.62418 12.0625 3.20555 12.0625 3.90039V4.5C12.0625 4.51306 12.0573 4.52868 12.043 4.54297C12.0287 4.55726 12.0131 4.5625 12 4.5625C11.9869 4.5625 11.9713 4.55726 11.957 4.54297C11.9427 4.52868 11.9375 4.51306 11.9375 4.5V3.90039C11.9375 3.57705 11.9384 3.26084 11.9053 2.98926C11.8716 2.71346 11.7962 2.42101 11.6006 2.17188C11.399 1.91527 11.1175 1.7651 10.7891 1.67871C10.4691 1.5946 10.0743 1.5625 9.59961 1.5625H8.40039C7.92573 1.5625 7.5309 1.5946 7.21094 1.67871C6.8825 1.7651 6.601 1.91527 6.39941 2.17188C6.20378 2.42101 6.12844 2.71346 6.09473 2.98926C6.06155 3.26084 6.0625 3.57705 6.0625 3.90039V4.5C6.0625 4.51306 6.05726 4.52868 6.04297 4.54297C6.02868 4.55726 6.01306 4.5625 6 4.5625C5.98694 4.5625 5.97132 4.55726 5.95703 4.54297C5.94274 4.52868 5.9375 4.51306 5.9375 4.5V3.90039C5.9375 3.20555 5.95199 2.62418 6.22852 2.19434C6.46867 1.82106 7.00409 1.4375 8.40039 1.4375Z" fill="#292D32" stroke="#667085"/>
<path d="M8.25 8.9375H9.75C10.286 8.9375 10.4134 9.01497 10.4492 9.05078C10.485 9.08659 10.5625 9.21403 10.5625 9.75V10.5C10.5625 10.9149 10.5504 11.2834 10.3789 11.5615C10.2421 11.7833 9.92358 12.0625 9 12.0625C8.07523 12.0625 7.75637 11.7842 7.62012 11.5654C7.4497 11.2915 7.4375 10.9294 7.4375 10.5225V9.75C7.4375 9.21403 7.51497 9.08659 7.55078 9.05078C7.58659 9.01497 7.71403 8.9375 8.25 8.9375ZM7.5625 10.5225C7.5625 10.7039 7.56204 10.8923 7.58105 11.0508C7.60044 11.2122 7.64767 11.4233 7.80566 11.6016C7.96707 11.7835 8.17775 11.8587 8.36328 11.8945C8.54515 11.9296 8.76169 11.9375 9 11.9375C9.23589 11.9375 9.45107 11.9309 9.63086 11.8984C9.81352 11.8655 10.0278 11.7943 10.1924 11.6113C10.3533 11.4323 10.3998 11.2186 10.4189 11.0566C10.4378 10.8966 10.4375 10.7036 10.4375 10.5146V9.0625H7.5625V10.5225Z" fill="#292D32" stroke="#667085"/>
<path d="M16.2427 8.1839C16.2576 8.18635 16.2747 8.19528 16.2896 8.21417H16.2905C16.3073 8.23719 16.3053 8.27902 16.27 8.30499C14.5919 9.52328 12.6129 10.3073 10.5317 10.5775H10.5005L10.48 10.5735C10.4731 10.5709 10.4659 10.5665 10.4595 10.5609C10.448 10.5507 10.444 10.5402 10.4429 10.5306L10.4419 10.5218L10.4438 10.4954C10.4462 10.4869 10.4499 10.4783 10.4556 10.471C10.4665 10.457 10.4795 10.4503 10.4927 10.4485H10.4946C12.558 10.1906 14.5354 9.40916 16.2017 8.19659L16.2095 8.19073C16.2181 8.18424 16.2282 8.18151 16.2427 8.1839Z" fill="#292D32" stroke="#667085"/>
<path d="M1.99268 8.40167C3.63983 9.52535 5.53719 10.2359 7.4917 10.4632V10.4642C7.51089 10.4665 7.52733 10.4757 7.53857 10.4896C7.54935 10.503 7.55284 10.5167 7.55127 10.5296L7.54932 10.5511C7.54882 10.5567 7.54759 10.5604 7.54639 10.5628C7.545 10.5655 7.54222 10.5683 7.53857 10.5716C7.53124 10.5782 7.51882 10.5852 7.50049 10.5853H7.46631C5.5018 10.3592 3.5851 9.64035 1.92529 8.50519L1.92236 8.50323C1.91115 8.49554 1.90151 8.48272 1.89795 8.46417C1.89435 8.44541 1.89876 8.42909 1.90674 8.4173C1.91442 8.40608 1.92726 8.39646 1.9458 8.39288C1.95532 8.39105 1.96428 8.39126 1.97217 8.39288L1.99268 8.40167Z" fill="#292D32" stroke="#667085"/>
</svg>
