<svg width="12" height="12" viewBox="0 0 12 12" fill="none" xmlns="http://www.w3.org/2000/svg">
<path d="M8.37511 1.78V1C8.37511 0.795 8.20511 0.625 8.00011 0.625C7.79511 0.625 7.62511 0.795 7.62511 1V1.75H4.37511V1C4.37511 0.795 4.20511 0.625 4.00011 0.625C3.79511 0.625 3.62511 0.795 3.62511 1V1.78C2.27511 1.905 1.62011 2.71 1.52011 3.905C1.51011 4.05 1.63011 4.17 1.77011 4.17H10.2301C10.3751 4.17 10.4951 4.045 10.4801 3.905C10.3801 2.71 9.72511 1.905 8.37511 1.78Z" fill="#98A2B3"/>
<path d="M10 4.91992H2C1.725 4.91992 1.5 5.14492 1.5 5.41992V8.49992C1.5 9.99992 2.25 10.9999 4 10.9999H8C9.75 10.9999 10.5 9.99992 10.5 8.49992V5.41992C10.5 5.14492 10.275 4.91992 10 4.91992ZM4.605 9.10492C4.58 9.12492 4.555 9.14992 4.53 9.16492C4.5 9.18492 4.47 9.19992 4.44 9.20992C4.41 9.22492 4.38 9.23492 4.35 9.23992C4.315 9.24492 4.285 9.24992 4.25 9.24992C4.185 9.24992 4.12 9.23492 4.06 9.20992C3.995 9.18492 3.945 9.14992 3.895 9.10492C3.805 9.00992 3.75 8.87992 3.75 8.74992C3.75 8.61992 3.805 8.48992 3.895 8.39492C3.945 8.34992 3.995 8.31492 4.06 8.28992C4.15 8.24992 4.25 8.23992 4.35 8.25992C4.38 8.26492 4.41 8.27492 4.44 8.28992C4.47 8.29992 4.5 8.31492 4.53 8.33492C4.555 8.35492 4.58 8.37492 4.605 8.39492C4.695 8.48992 4.75 8.61992 4.75 8.74992C4.75 8.87992 4.695 9.00992 4.605 9.10492ZM4.605 7.35492C4.51 7.44492 4.38 7.49992 4.25 7.49992C4.12 7.49992 3.99 7.44492 3.895 7.35492C3.805 7.25992 3.75 7.12992 3.75 6.99992C3.75 6.86992 3.805 6.73992 3.895 6.64492C4.035 6.50492 4.255 6.45992 4.44 6.53992C4.505 6.56492 4.56 6.59992 4.605 6.64492C4.695 6.73992 4.75 6.86992 4.75 6.99992C4.75 7.12992 4.695 7.25992 4.605 7.35492ZM6.355 9.10492C6.26 9.19492 6.13 9.24992 6 9.24992C5.87 9.24992 5.74 9.19492 5.645 9.10492C5.555 9.00992 5.5 8.87992 5.5 8.74992C5.5 8.61992 5.555 8.48992 5.645 8.39492C5.83 8.20992 6.17 8.20992 6.355 8.39492C6.445 8.48992 6.5 8.61992 6.5 8.74992C6.5 8.87992 6.445 9.00992 6.355 9.10492ZM6.355 7.35492C6.33 7.37492 6.305 7.39492 6.28 7.41492C6.25 7.43492 6.22 7.44992 6.19 7.45992C6.16 7.47492 6.13 7.48492 6.1 7.48992C6.065 7.49492 6.035 7.49992 6 7.49992C5.87 7.49992 5.74 7.44492 5.645 7.35492C5.555 7.25992 5.5 7.12992 5.5 6.99992C5.5 6.86992 5.555 6.73992 5.645 6.64492C5.69 6.59992 5.745 6.56492 5.81 6.53992C5.995 6.45992 6.215 6.50492 6.355 6.64492C6.445 6.73992 6.5 6.86992 6.5 6.99992C6.5 7.12992 6.445 7.25992 6.355 7.35492ZM8.105 9.10492C8.01 9.19492 7.88 9.24992 7.75 9.24992C7.62 9.24992 7.49 9.19492 7.395 9.10492C7.305 9.00992 7.25 8.87992 7.25 8.74992C7.25 8.61992 7.305 8.48992 7.395 8.39492C7.58 8.20992 7.92 8.20992 8.105 8.39492C8.195 8.48992 8.25 8.61992 8.25 8.74992C8.25 8.87992 8.195 9.00992 8.105 9.10492ZM8.105 7.35492C8.08 7.37492 8.055 7.39492 8.03 7.41492C8 7.43492 7.97 7.44992 7.94 7.45992C7.91 7.47492 7.88 7.48492 7.85 7.48992C7.815 7.49492 7.78 7.49992 7.75 7.49992C7.62 7.49992 7.49 7.44492 7.395 7.35492C7.305 7.25992 7.25 7.12992 7.25 6.99992C7.25 6.86992 7.305 6.73992 7.395 6.64492C7.445 6.59992 7.495 6.56492 7.56 6.53992C7.65 6.49992 7.75 6.48992 7.85 6.50992C7.88 6.51492 7.91 6.52492 7.94 6.53992C7.97 6.54992 8 6.56492 8.03 6.58492C8.055 6.60492 8.08 6.62492 8.105 6.64492C8.195 6.73992 8.25 6.86992 8.25 6.99992C8.25 7.12992 8.195 7.25992 8.105 7.35492Z" fill="#98A2B3"/>
</svg>
