<svg width="15" height="15" viewBox="0 0 15 15" fill="none" xmlns="http://www.w3.org/2000/svg">
<circle cx="7.00002" cy="7.27273" r="7.27273" fill="#12B76A"/>
<path d="M6.26978 10.9579C6.05133 10.9579 5.86721 10.8658 5.71742 10.6817L3.81223 8.3084C3.75294 8.23662 3.71081 8.16797 3.68584 8.10243C3.66088 8.03378 3.6484 7.96356 3.6484 7.89179C3.6484 7.73263 3.70145 7.60156 3.80755 7.49858C3.91365 7.39248 4.0494 7.33942 4.2148 7.33942C4.39892 7.33942 4.5534 7.419 4.67823 7.57816L6.25106 9.60037L9.29373 4.76017C9.36551 4.65407 9.43885 4.57917 9.51374 4.53548C9.58864 4.48867 9.68226 4.46526 9.79461 4.46526C9.95688 4.46526 10.0895 4.51675 10.1925 4.61974C10.2986 4.7196 10.3516 4.84911 10.3516 5.00826C10.3516 5.07068 10.3407 5.13465 10.3189 5.20019C10.3002 5.26572 10.2674 5.33438 10.2206 5.40615L6.82214 10.6676C6.69107 10.8611 6.50695 10.9579 6.26978 10.9579Z" fill="white"/>
</svg>
