<svg width="24" height="24" viewBox="0 0 24 24" fill="none" xmlns="http://www.w3.org/2000/svg">
<path d="M21.12 16.96C20.77 15.9 19.72 15.27 18.62 15.45L15.41 15.98C14.5 16.13 13.58 16.1 12.69 15.87L11.47 15.56C11.05 15.46 10.76 15.08 10.76 14.65C10.76 14.13 11.18 13.72 11.69 13.72H12.51C13.75 13.72 14.76 12.71 14.76 11.47C14.76 10.23 13.75 9.22 12.51 9.22H9.44001C8.39001 9.22 7.37001 9.42 6.40001 9.81L2.73001 11.28C2.44001 11.39 2.26001 11.67 2.26001 11.98V18.98C2.26001 19.32 2.49001 19.62 2.83001 19.71L9.21001 21.3C9.86001 21.46 10.53 21.54 11.2 21.54C11.74 21.54 12.28 21.49 12.8 21.38L19.49 20.04C20.12 19.91 20.67 19.52 20.99 18.96C21.31 18.4 21.38 17.73 21.18 17.12L21.12 16.95V16.96Z" fill="#040468"/>
<path d="M12.5 7.72999C14.57 7.72999 16.25 9.40999 16.25 11.48C16.25 12.76 15.61 13.89 14.63 14.57C14.81 14.56 14.98 14.54 15.16 14.51L18.37 13.98C18.58 13.95 18.79 13.93 18.99 13.93C19.51 13.93 20.01 14.05 20.47 14.25C21.28 13.03 21.75 11.56 21.75 9.98999C21.75 5.71999 18.27 2.23999 14 2.23999C10.34 2.23999 7.26996 4.79999 6.45996 8.21999C7.41996 7.90999 8.40996 7.73999 9.42996 7.73999H12.5V7.72999Z" fill="#040468"/>
</svg>
