<svg width="24" height="24" viewBox="0 0 24 24" fill="none" xmlns="http://www.w3.org/2000/svg">
<rect width="24" height="24" rx="12" fill="#FA5252"/>
<path fill-rule="evenodd" clip-rule="evenodd" d="M9.80947 6.66683C9.80797 6.66828 9.80636 6.66986 9.80466 6.67157L6.67132 9.8049C6.66962 9.80661 6.66804 9.80821 6.66659 9.80971V14.1906C6.66804 14.1921 6.66962 14.1937 6.67132 14.1954L9.80466 17.3288C9.80636 17.3305 9.80797 17.332 9.80947 17.3335H14.1904C14.1919 17.332 14.1935 17.3305 14.1952 17.3288L17.3285 14.1954C17.3302 14.1937 17.3318 14.1921 17.3333 14.1906V9.80971C17.3318 9.80821 17.3302 9.80661 17.3285 9.8049L14.1952 6.67157C14.1935 6.66986 14.1919 6.66828 14.1904 6.66683H9.80947ZM9.27083 5.44096C9.44417 5.36392 9.62213 5.3335 9.79992 5.3335H14.1999C14.3777 5.3335 14.5557 5.36392 14.729 5.44096C14.8995 5.51671 15.032 5.62274 15.138 5.72876L18.2713 8.86209C18.3773 8.96811 18.4834 9.10063 18.5591 9.27107C18.6362 9.44441 18.6666 9.62237 18.6666 9.80016V14.2002C18.6666 14.378 18.6362 14.5559 18.5591 14.7293C18.4834 14.8997 18.3773 15.0322 18.2713 15.1382L15.138 18.2716C15.032 18.3776 14.8995 18.4836 14.729 18.5594C14.5557 18.6364 14.3777 18.6668 14.1999 18.6668H9.79992C9.62213 18.6668 9.44417 18.6364 9.27083 18.5594C9.10038 18.4836 8.96787 18.3776 8.86185 18.2716L5.72851 15.1382C5.62249 15.0322 5.51646 14.8997 5.44071 14.7293C5.36367 14.5559 5.33325 14.378 5.33325 14.2002V9.80016C5.33325 9.62237 5.36367 9.44441 5.44071 9.27107C5.51646 9.10063 5.62249 8.96811 5.72851 8.86209L8.86185 5.72876C8.96787 5.62274 9.10038 5.51671 9.27083 5.44096ZM11.3333 12.0002V9.3335C11.3333 8.96531 11.6317 8.66683 11.9999 8.66683C12.3681 8.66683 12.6666 8.96531 12.6666 9.3335V12.0002C12.6666 12.3684 12.3681 12.6668 11.9999 12.6668C11.6317 12.6668 11.3333 12.3684 11.3333 12.0002ZM11.3333 14.6668C11.3333 14.2986 11.6317 14.0002 11.9999 14.0002H12.0066C12.3748 14.0002 12.6733 14.2986 12.6733 14.6668C12.6733 15.035 12.3748 15.3335 12.0066 15.3335H11.9999C11.6317 15.3335 11.3333 15.035 11.3333 14.6668Z" fill="white"/>
</svg>
