<svg width="35" height="24" viewBox="0 0 35 24" fill="none" xmlns="http://www.w3.org/2000/svg">
<rect x="0.375" y="0.375" width="33.75" height="23.25" rx="4.125" fill="white"/>
<rect x="0.375" y="0.375" width="33.75" height="23.25" rx="4.125" stroke="#F2F4F7" stroke-width="0.75"/>
<path d="M21.5771 5.02997C25.322 5.02997 28.3584 8.02986 28.3584 11.7302C28.3583 15.4304 25.322 18.4304 21.5771 18.4304C19.8982 18.4303 18.3629 17.8256 17.1787 16.8268C15.9945 17.8254 14.4591 18.4304 12.7803 18.4304C9.03566 18.4301 6.00011 15.4302 6 11.7302C6 8.02999 9.03559 5.03019 12.7803 5.02997C14.459 5.02997 15.9945 5.63405 17.1787 6.63251C18.3629 5.63391 19.8983 5.03 21.5771 5.02997Z" fill="#ED0006"/>
<path d="M21.5776 5.02997C25.3224 5.03005 28.3579 8.02991 28.3579 11.7302C28.3578 15.4303 25.3224 18.4303 21.5776 18.4304C19.8987 18.4304 18.3634 17.8255 17.1792 16.8268C18.6364 15.598 19.562 13.7714 19.562 11.7302C19.562 9.68867 18.6366 7.8614 17.1792 6.63251C18.3634 5.63397 19.8988 5.02997 21.5776 5.02997Z" fill="#F9A000"/>
<path d="M17.1782 6.63275C18.6357 7.86165 19.561 9.68883 19.561 11.7304C19.5609 13.7718 18.6356 15.5983 17.1782 16.8271C15.7212 15.5983 14.7965 13.7715 14.7964 11.7304C14.7964 9.68913 15.7211 7.86164 17.1782 6.63275Z" fill="#FF5E00"/>
</svg>
