<svg width="36" height="36" viewBox="0 0 36 36" fill="none" xmlns="http://www.w3.org/2000/svg">
<path d="M0 8C0 3.58172 3.58172 0 8 0H28C32.4183 0 36 3.58172 36 8V28C36 32.4183 32.4183 36 28 36H8C3.58172 36 0 32.4183 0 28V8Z" fill="#CDCDE1"/>
<path fill-rule="evenodd" clip-rule="evenodd" d="M18.0001 12.6666C17.8233 12.6666 17.6537 12.7368 17.5287 12.8618C17.4036 12.9869 17.3334 13.1564 17.3334 13.3333C17.3334 13.591 17.1848 13.8257 16.9517 13.9359C16.2955 14.2462 15.7361 14.7293 15.3334 15.3333C14.9335 15.9331 14.7032 16.6297 14.6667 17.3495V19.3333C14.6667 19.36 14.6651 19.3868 14.6619 19.4134C14.6084 19.8554 14.467 20.2814 14.2469 20.6666H21.7533C21.5331 20.2814 21.3917 19.8554 21.3382 19.4134C21.335 19.3868 21.3334 19.36 21.3334 19.3333V17.3495C21.2969 16.6297 21.0666 15.9331 20.6667 15.3333C20.2641 14.7293 19.7046 14.2462 19.0484 13.9359C18.8154 13.8257 18.6667 13.591 18.6667 13.3333C18.6667 13.1564 18.5965 12.9869 18.4715 12.8618C18.3464 12.7368 18.1769 12.6666 18.0001 12.6666ZM19.3334 21.9999H16.6667C16.6667 22.3535 16.8072 22.6927 17.0573 22.9427C17.3073 23.1928 17.6464 23.3333 18.0001 23.3333C18.3537 23.3333 18.6928 23.1928 18.9429 22.9427C19.1929 22.6927 19.3334 22.3535 19.3334 21.9999ZM15.3334 21.9999C15.3334 22.7072 15.6143 23.3854 16.1144 23.8855C16.6145 24.3856 17.2928 24.6666 18.0001 24.6666C18.7073 24.6666 19.3856 24.3856 19.8857 23.8855C20.3858 23.3854 20.6667 22.7072 20.6667 21.9999H23.3334C23.6362 21.9999 23.9009 21.7959 23.9781 21.5031C24.0552 21.2103 23.9254 20.9023 23.6619 20.7531C23.3894 20.5988 23.157 20.3827 22.9833 20.1222C22.8165 19.872 22.7084 19.5876 22.6667 19.2902V17.3333C22.6667 17.3228 22.6665 17.3124 22.666 17.302C22.6206 16.3352 22.313 15.399 21.7761 14.5937C21.3092 13.8932 20.684 13.3147 19.9534 12.9037C19.872 12.5336 19.6864 12.1912 19.4143 11.919C19.0392 11.544 18.5305 11.3333 18.0001 11.3333C17.4696 11.3333 16.9609 11.544 16.5858 11.919C16.3137 12.1912 16.1281 12.5336 16.0467 12.9037C15.3161 13.3147 14.691 13.8932 14.224 14.5937C13.6871 15.399 13.3795 16.3352 13.3341 17.302C13.3336 17.3124 13.3334 17.3228 13.3334 17.3333V19.2902C13.2917 19.5876 13.1836 19.872 13.0168 20.1222C12.8431 20.3827 12.6107 20.5988 12.3382 20.7531C12.0748 20.9023 11.9449 21.2103 12.0221 21.5031C12.0992 21.7959 12.364 21.9999 12.6667 21.9999H15.3334Z" fill="#040468"/>
</svg>
